<?xml version="1.0" encoding="UTF-8"?>
<svg version="1.1" xmlns="http://www.w3.org/2000/svg" width="1200" height="800">
<path d="M0 0 C396 0 792 0 1200 0 C1200 264 1200 528 1200 800 C804 800 408 800 0 800 C0 536 0 272 0 0 Z " fill="#F4F9FF" transform="translate(0,0)"/>
<path d="M0 0 C132 0 264 0 400 0 C400 264 400 528 400 800 C268 800 136 800 0 800 C0 536 0 272 0 0 Z " fill="#CD212A" transform="translate(800,0)"/>
<path d="M0 0 C132 0 264 0 400 0 C400 264 400 528 400 800 C268 800 136 800 0 800 C0 536 0 272 0 0 Z " fill="#008C45" transform="translate(0,0)"/>
</svg>
